<svg xmlns="http://www.w3.org/2000/svg" viewBox="0 0 32 40" x="0px" y="0px">
    <g>
        <path
            d="M21.677,8.111a6.657,6.657,0,0,0-.851.057A10.459,10.459,0,0,0,17,7.078V5a1,1,0,0,0-2,0V7.078a10.459,10.459,0,0,0-3.826,1.09,6.657,6.657,0,0,0-.851-.057C5.734,8.111,2,12.547,2,18s3.734,9.889,8.323,9.889a6.657,6.657,0,0,0,.851-.057,10.554,10.554,0,0,0,9.652,0,6.657,6.657,0,0,0,.851.057C26.266,27.889,30,23.453,30,18S26.266,8.111,21.677,8.111ZM9.111,16l1.562-2.306a.662.662,0,0,1,.94-.159l3.123,2.306A.645.645,0,0,1,14.342,17H9.658A.646.646,0,0,1,9.111,16Zm12.261,5.934-2.5,1a1.01,1.01,0,0,1-.744,0L16,22.077l-2.128.852a1.017,1.017,0,0,1-.744,0l-2.5-1a1,1,0,1,1,.744-1.858l2.128.852,2.128-.852a1.017,1.017,0,0,1,.744,0l2.128.852,2.128-.852a1,1,0,1,1,.744,1.858ZM22.342,17H17.658a.645.645,0,0,1-.394-1.164l3.123-2.306a.662.662,0,0,1,.94.159L22.889,16A.646.646,0,0,1,22.342,17Z" />
    </g>
</svg>